<?xml version="1.0" encoding="utf-8"?><!-- Uploaded to: SVG Repo, www.svgrepo.com, Generator: SVG Repo Mixer Tools -->
<svg fill="#000000" width="800px" height="800px" viewBox="0 0 24 24" id="map-pin" data-name="Flat Color" xmlns="http://www.w3.org/2000/svg" class="icon flat-color"><path id="secondary" d="M12,18a1,1,0,0,1-1-1V9a1,1,0,0,1,2,0v8A1,1,0,0,1,12,18Z" style="fill: rgb(44, 169, 188);"></path><path id="primary" d="M12,22c-2.8,0-5-1.56-5-3.54a2.43,2.43,0,0,1,.12-.77,1,1,0,0,1,1.9.62.61.61,0,0,0,0,.15C9,19.19,10.28,20,12,20s3-.81,3-1.54a.52.52,0,0,0,0-.14,1,1,0,1,1,1.9-.64,2.5,2.5,0,0,1,.12.78C17,20.44,14.8,22,12,22ZM12,2a4,4,0,1,0,4,4A4,4,0,0,0,12,2Z" style="fill: rgb(0, 0, 0);"></path></svg>